<mxfile host="app.diagrams.net" modified="2022-12-29T06:32:24.594Z" agent="5.0 (Windows NT 10.0; Win64; x64) AppleWebKit/537.36 (KHTML, like Gecko) Chrome/108.0.0.0 Safari/537.36 Edg/108.0.1462.54" version="20.7.4" etag="J_f-56iWI1P2KdSoar6w" type="github" pages="2">
  <diagram id="WIxW-939mSK6KY0qEzyX" name="Trang-1">
    <mxGraphModel dx="794" dy="428" grid="1" gridSize="10" guides="1" tooltips="1" connect="1" arrows="1" fold="1" page="1" pageScale="1" pageWidth="1654" pageHeight="2336" math="0" shadow="0">
      <root>
        <mxCell id="0" />
        <mxCell id="1" parent="0" />
        <mxCell id="AafMlstYyDwelmlfr-uM-1" value="&lt;font face=&quot;Times New Roman&quot; style=&quot;font-size: 18px;&quot;&gt;&lt;b&gt;TenCV&lt;/b&gt;&lt;/font&gt;" style="ellipse;whiteSpace=wrap;html=1;" vertex="1" parent="1">
          <mxGeometry x="70" y="80" width="120" height="80" as="geometry" />
        </mxCell>
        <mxCell id="AafMlstYyDwelmlfr-uM-2" value="&lt;font style=&quot;font-size: 18px;&quot; face=&quot;Times New Roman&quot;&gt;&lt;b&gt;CHUCVU&lt;/b&gt;&lt;/font&gt;" style="rounded=0;whiteSpace=wrap;html=1;" vertex="1" parent="1">
          <mxGeometry x="320" y="200" width="120" height="60" as="geometry" />
        </mxCell>
        <mxCell id="AafMlstYyDwelmlfr-uM-3" value="&lt;b&gt;MaCV&lt;/b&gt;" style="ellipse;whiteSpace=wrap;html=1;fontFamily=Times New Roman;fontSize=18;" vertex="1" parent="1">
          <mxGeometry x="70" y="300" width="120" height="80" as="geometry" />
        </mxCell>
        <mxCell id="AafMlstYyDwelmlfr-uM-4" value="&lt;font style=&quot;font-size: 18px;&quot;&gt;&lt;b&gt;Đảm nhiệm&lt;/b&gt;&lt;/font&gt;" style="rhombus;whiteSpace=wrap;html=1;fontFamily=Times New Roman;fontSize=18;" vertex="1" parent="1">
          <mxGeometry x="579" y="180" width="120" height="100" as="geometry" />
        </mxCell>
        <mxCell id="AafMlstYyDwelmlfr-uM-5" value="&lt;b&gt;HOP DONG LAO DONG&lt;/b&gt;" style="ellipse;whiteSpace=wrap;html=1;fontFamily=Times New Roman;fontSize=18;" vertex="1" parent="1">
          <mxGeometry x="707" y="50" width="120" height="80" as="geometry" />
        </mxCell>
        <mxCell id="AafMlstYyDwelmlfr-uM-6" value="" style="endArrow=none;html=1;rounded=0;fontFamily=Times New Roman;fontSize=18;entryX=1;entryY=0.5;entryDx=0;entryDy=0;exitX=0;exitY=0;exitDx=0;exitDy=0;" edge="1" parent="1" source="AafMlstYyDwelmlfr-uM-2" target="AafMlstYyDwelmlfr-uM-1">
          <mxGeometry width="50" height="50" relative="1" as="geometry">
            <mxPoint x="430" y="150" as="sourcePoint" />
            <mxPoint x="480" y="100" as="targetPoint" />
          </mxGeometry>
        </mxCell>
        <mxCell id="AafMlstYyDwelmlfr-uM-7" value="" style="endArrow=none;html=1;rounded=0;fontFamily=Times New Roman;fontSize=18;exitX=1;exitY=0;exitDx=0;exitDy=0;entryX=0;entryY=1;entryDx=0;entryDy=0;" edge="1" parent="1" source="AafMlstYyDwelmlfr-uM-3" target="AafMlstYyDwelmlfr-uM-2">
          <mxGeometry width="50" height="50" relative="1" as="geometry">
            <mxPoint x="430" y="150" as="sourcePoint" />
            <mxPoint x="480" y="100" as="targetPoint" />
          </mxGeometry>
        </mxCell>
        <mxCell id="AafMlstYyDwelmlfr-uM-8" value="" style="endArrow=none;html=1;rounded=0;fontFamily=Times New Roman;fontSize=18;exitX=1;exitY=0.5;exitDx=0;exitDy=0;" edge="1" parent="1" source="AafMlstYyDwelmlfr-uM-2" target="AafMlstYyDwelmlfr-uM-4">
          <mxGeometry width="50" height="50" relative="1" as="geometry">
            <mxPoint x="430" y="150" as="sourcePoint" />
            <mxPoint x="480" y="100" as="targetPoint" />
          </mxGeometry>
        </mxCell>
        <mxCell id="AafMlstYyDwelmlfr-uM-9" value="" style="endArrow=none;html=1;rounded=0;fontFamily=Times New Roman;fontSize=18;entryX=0;entryY=0.5;entryDx=0;entryDy=0;exitX=0.5;exitY=0;exitDx=0;exitDy=0;" edge="1" parent="1" source="AafMlstYyDwelmlfr-uM-4" target="AafMlstYyDwelmlfr-uM-5">
          <mxGeometry width="50" height="50" relative="1" as="geometry">
            <mxPoint x="489" y="150" as="sourcePoint" />
            <mxPoint x="539" y="100" as="targetPoint" />
          </mxGeometry>
        </mxCell>
        <mxCell id="AafMlstYyDwelmlfr-uM-10" value="&lt;b&gt;NHAN VIEN&lt;/b&gt;" style="rounded=0;whiteSpace=wrap;html=1;fontFamily=Times New Roman;fontSize=18;" vertex="1" parent="1">
          <mxGeometry x="579" y="690" width="120" height="60" as="geometry" />
        </mxCell>
        <mxCell id="AafMlstYyDwelmlfr-uM-11" value="" style="endArrow=none;html=1;rounded=0;fontFamily=Times New Roman;fontSize=18;exitX=0.5;exitY=0;exitDx=0;exitDy=0;entryX=0.5;entryY=1;entryDx=0;entryDy=0;" edge="1" parent="1" source="AafMlstYyDwelmlfr-uM-10" target="AafMlstYyDwelmlfr-uM-4">
          <mxGeometry width="50" height="50" relative="1" as="geometry">
            <mxPoint x="559" y="620" as="sourcePoint" />
            <mxPoint x="609" y="570" as="targetPoint" />
          </mxGeometry>
        </mxCell>
        <mxCell id="AafMlstYyDwelmlfr-uM-12" value="&lt;b&gt;Đạt&lt;/b&gt;" style="rhombus;whiteSpace=wrap;html=1;fontFamily=Times New Roman;fontSize=18;" vertex="1" parent="1">
          <mxGeometry x="220" y="680" width="80" height="80" as="geometry" />
        </mxCell>
        <mxCell id="AafMlstYyDwelmlfr-uM-13" value="" style="endArrow=none;html=1;rounded=0;fontFamily=Times New Roman;fontSize=18;exitX=1;exitY=0.5;exitDx=0;exitDy=0;" edge="1" parent="1" source="AafMlstYyDwelmlfr-uM-12" target="AafMlstYyDwelmlfr-uM-10">
          <mxGeometry width="50" height="50" relative="1" as="geometry">
            <mxPoint x="500" y="620" as="sourcePoint" />
            <mxPoint x="550" y="570" as="targetPoint" />
          </mxGeometry>
        </mxCell>
        <mxCell id="AafMlstYyDwelmlfr-uM-14" value="&lt;b&gt;Hưởng&lt;/b&gt;" style="rhombus;whiteSpace=wrap;html=1;fontFamily=Times New Roman;fontSize=18;" vertex="1" parent="1">
          <mxGeometry x="1120" y="680" width="80" height="80" as="geometry" />
        </mxCell>
        <mxCell id="AafMlstYyDwelmlfr-uM-15" value="" style="endArrow=none;html=1;rounded=0;fontFamily=Times New Roman;fontSize=18;entryX=0;entryY=0.5;entryDx=0;entryDy=0;exitX=1;exitY=0.5;exitDx=0;exitDy=0;" edge="1" parent="1" source="AafMlstYyDwelmlfr-uM-10" target="AafMlstYyDwelmlfr-uM-14">
          <mxGeometry width="50" height="50" relative="1" as="geometry">
            <mxPoint x="559" y="620" as="sourcePoint" />
            <mxPoint x="609" y="570" as="targetPoint" />
          </mxGeometry>
        </mxCell>
        <mxCell id="AafMlstYyDwelmlfr-uM-16" value="&lt;b&gt;Lương&lt;/b&gt;" style="rounded=0;whiteSpace=wrap;html=1;fontFamily=Times New Roman;fontSize=18;" vertex="1" parent="1">
          <mxGeometry x="1100" y="220" width="120" height="60" as="geometry" />
        </mxCell>
        <mxCell id="AafMlstYyDwelmlfr-uM-17" value="" style="endArrow=none;html=1;rounded=0;fontFamily=Times New Roman;fontSize=18;entryX=0.5;entryY=1;entryDx=0;entryDy=0;exitX=0.5;exitY=0;exitDx=0;exitDy=0;" edge="1" parent="1" source="AafMlstYyDwelmlfr-uM-14" target="AafMlstYyDwelmlfr-uM-16">
          <mxGeometry width="50" height="50" relative="1" as="geometry">
            <mxPoint x="1019" y="760" as="sourcePoint" />
            <mxPoint x="1069" y="710" as="targetPoint" />
          </mxGeometry>
        </mxCell>
        <mxCell id="AafMlstYyDwelmlfr-uM-18" value="&lt;b&gt;Đảm nhiệm&lt;/b&gt;" style="rhombus;whiteSpace=wrap;html=1;fontFamily=Times New Roman;fontSize=18;" vertex="1" parent="1">
          <mxGeometry x="583" y="1000" width="112" height="80" as="geometry" />
        </mxCell>
        <mxCell id="AafMlstYyDwelmlfr-uM-19" value="" style="endArrow=none;html=1;rounded=0;fontFamily=Times New Roman;fontSize=18;entryX=0.5;entryY=1;entryDx=0;entryDy=0;exitX=0.5;exitY=0;exitDx=0;exitDy=0;" edge="1" parent="1" source="AafMlstYyDwelmlfr-uM-18" target="AafMlstYyDwelmlfr-uM-10">
          <mxGeometry width="50" height="50" relative="1" as="geometry">
            <mxPoint x="491" y="930" as="sourcePoint" />
            <mxPoint x="541" y="880" as="targetPoint" />
          </mxGeometry>
        </mxCell>
        <mxCell id="AafMlstYyDwelmlfr-uM-20" value="&lt;b&gt;TRINH DO HOC VAN&lt;/b&gt;" style="rounded=0;whiteSpace=wrap;html=1;fontFamily=Times New Roman;fontSize=18;" vertex="1" parent="1">
          <mxGeometry x="210" y="1010" width="120" height="60" as="geometry" />
        </mxCell>
        <mxCell id="AafMlstYyDwelmlfr-uM-21" value="" style="endArrow=none;html=1;rounded=0;fontFamily=Times New Roman;fontSize=18;entryX=0.5;entryY=1;entryDx=0;entryDy=0;" edge="1" parent="1" target="AafMlstYyDwelmlfr-uM-12">
          <mxGeometry width="50" height="50" relative="1" as="geometry">
            <mxPoint x="260" y="1010" as="sourcePoint" />
            <mxPoint x="310" y="900" as="targetPoint" />
          </mxGeometry>
        </mxCell>
        <mxCell id="AafMlstYyDwelmlfr-uM-22" value="&lt;b&gt;PHONG BAN&lt;/b&gt;" style="rounded=0;whiteSpace=wrap;html=1;fontFamily=Times New Roman;fontSize=18;" vertex="1" parent="1">
          <mxGeometry x="1100" y="1010" width="120" height="60" as="geometry" />
        </mxCell>
        <mxCell id="AafMlstYyDwelmlfr-uM-23" value="" style="endArrow=none;html=1;rounded=0;fontFamily=Times New Roman;fontSize=18;exitX=1;exitY=0.5;exitDx=0;exitDy=0;entryX=0;entryY=0.5;entryDx=0;entryDy=0;" edge="1" parent="1" source="AafMlstYyDwelmlfr-uM-18" target="AafMlstYyDwelmlfr-uM-22">
          <mxGeometry width="50" height="50" relative="1" as="geometry">
            <mxPoint x="800" y="1020" as="sourcePoint" />
            <mxPoint x="850" y="970" as="targetPoint" />
          </mxGeometry>
        </mxCell>
        <mxCell id="AafMlstYyDwelmlfr-uM-24" value="&lt;b&gt;BacLuong&lt;/b&gt;" style="ellipse;whiteSpace=wrap;html=1;fontFamily=Times New Roman;fontSize=18;" vertex="1" parent="1">
          <mxGeometry x="900" y="80" width="120" height="80" as="geometry" />
        </mxCell>
        <mxCell id="AafMlstYyDwelmlfr-uM-25" value="" style="endArrow=none;html=1;rounded=0;fontFamily=Times New Roman;fontSize=18;exitX=0;exitY=0;exitDx=0;exitDy=0;entryX=1;entryY=0.5;entryDx=0;entryDy=0;" edge="1" parent="1" source="AafMlstYyDwelmlfr-uM-16" target="AafMlstYyDwelmlfr-uM-24">
          <mxGeometry width="50" height="50" relative="1" as="geometry">
            <mxPoint x="920" y="210" as="sourcePoint" />
            <mxPoint x="970" y="160" as="targetPoint" />
          </mxGeometry>
        </mxCell>
        <mxCell id="AafMlstYyDwelmlfr-uM-26" value="&lt;b&gt;HSPhuCap&lt;/b&gt;" style="ellipse;whiteSpace=wrap;html=1;fontFamily=Times New Roman;fontSize=18;" vertex="1" parent="1">
          <mxGeometry x="900" y="240" width="120" height="80" as="geometry" />
        </mxCell>
        <mxCell id="AafMlstYyDwelmlfr-uM-27" value="" style="endArrow=none;html=1;rounded=0;fontFamily=Times New Roman;fontSize=18;exitX=0;exitY=0.5;exitDx=0;exitDy=0;entryX=1;entryY=0.5;entryDx=0;entryDy=0;" edge="1" parent="1" source="AafMlstYyDwelmlfr-uM-16" target="AafMlstYyDwelmlfr-uM-26">
          <mxGeometry width="50" height="50" relative="1" as="geometry">
            <mxPoint x="910" y="210" as="sourcePoint" />
            <mxPoint x="960" y="160" as="targetPoint" />
          </mxGeometry>
        </mxCell>
        <mxCell id="AafMlstYyDwelmlfr-uM-28" value="&lt;b&gt;LuongCB&lt;/b&gt;" style="ellipse;whiteSpace=wrap;html=1;fontFamily=Times New Roman;fontSize=18;" vertex="1" parent="1">
          <mxGeometry x="1300" y="80" width="120" height="80" as="geometry" />
        </mxCell>
        <mxCell id="AafMlstYyDwelmlfr-uM-29" value="" style="endArrow=none;html=1;rounded=0;fontFamily=Times New Roman;fontSize=18;entryX=0;entryY=0.5;entryDx=0;entryDy=0;exitX=1;exitY=0;exitDx=0;exitDy=0;" edge="1" parent="1" source="AafMlstYyDwelmlfr-uM-16" target="AafMlstYyDwelmlfr-uM-28">
          <mxGeometry width="50" height="50" relative="1" as="geometry">
            <mxPoint x="1080" y="210" as="sourcePoint" />
            <mxPoint x="1130" y="160" as="targetPoint" />
          </mxGeometry>
        </mxCell>
        <mxCell id="AafMlstYyDwelmlfr-uM-30" value="&lt;b&gt;HSLuong&lt;/b&gt;" style="ellipse;whiteSpace=wrap;html=1;fontFamily=Times New Roman;fontSize=18;" vertex="1" parent="1">
          <mxGeometry x="1300" y="240" width="120" height="80" as="geometry" />
        </mxCell>
        <mxCell id="AafMlstYyDwelmlfr-uM-31" value="" style="endArrow=none;html=1;rounded=0;fontFamily=Times New Roman;fontSize=18;entryX=0;entryY=0.5;entryDx=0;entryDy=0;exitX=1;exitY=0.5;exitDx=0;exitDy=0;" edge="1" parent="1" source="AafMlstYyDwelmlfr-uM-16" target="AafMlstYyDwelmlfr-uM-30">
          <mxGeometry width="50" height="50" relative="1" as="geometry">
            <mxPoint x="1080" y="280" as="sourcePoint" />
            <mxPoint x="1130" y="230" as="targetPoint" />
          </mxGeometry>
        </mxCell>
        <mxCell id="AafMlstYyDwelmlfr-uM-32" value="&lt;b&gt;MaPB&lt;/b&gt;" style="ellipse;whiteSpace=wrap;html=1;fontFamily=Times New Roman;fontSize=18;" vertex="1" parent="1">
          <mxGeometry x="1100" y="840" width="120" height="80" as="geometry" />
        </mxCell>
        <mxCell id="AafMlstYyDwelmlfr-uM-33" value="&lt;b&gt;TenPB&lt;/b&gt;" style="ellipse;whiteSpace=wrap;html=1;fontFamily=Times New Roman;fontSize=18;" vertex="1" parent="1">
          <mxGeometry x="1270" y="910" width="120" height="80" as="geometry" />
        </mxCell>
        <mxCell id="AafMlstYyDwelmlfr-uM-34" value="&lt;b&gt;DiaChi&lt;/b&gt;" style="ellipse;whiteSpace=wrap;html=1;fontFamily=Times New Roman;fontSize=18;" vertex="1" parent="1">
          <mxGeometry x="1270" y="1090" width="120" height="80" as="geometry" />
        </mxCell>
        <mxCell id="AafMlstYyDwelmlfr-uM-35" value="&lt;b&gt;SDTPB&lt;/b&gt;" style="ellipse;whiteSpace=wrap;html=1;fontFamily=Times New Roman;fontSize=18;" vertex="1" parent="1">
          <mxGeometry x="1100" y="1160" width="120" height="80" as="geometry" />
        </mxCell>
        <mxCell id="AafMlstYyDwelmlfr-uM-36" value="" style="endArrow=none;html=1;rounded=0;fontFamily=Times New Roman;fontSize=18;entryX=0.5;entryY=1;entryDx=0;entryDy=0;exitX=0.5;exitY=0;exitDx=0;exitDy=0;" edge="1" parent="1" source="AafMlstYyDwelmlfr-uM-22" target="AafMlstYyDwelmlfr-uM-32">
          <mxGeometry width="50" height="50" relative="1" as="geometry">
            <mxPoint x="1160" y="1020" as="sourcePoint" />
            <mxPoint x="1210" y="970" as="targetPoint" />
          </mxGeometry>
        </mxCell>
        <mxCell id="AafMlstYyDwelmlfr-uM-37" value="" style="endArrow=none;html=1;rounded=0;fontFamily=Times New Roman;fontSize=18;exitX=0.5;exitY=0;exitDx=0;exitDy=0;entryX=0.5;entryY=1;entryDx=0;entryDy=0;" edge="1" parent="1" source="AafMlstYyDwelmlfr-uM-35" target="AafMlstYyDwelmlfr-uM-22">
          <mxGeometry width="50" height="50" relative="1" as="geometry">
            <mxPoint x="1160" y="1020" as="sourcePoint" />
            <mxPoint x="1210" y="970" as="targetPoint" />
          </mxGeometry>
        </mxCell>
        <mxCell id="AafMlstYyDwelmlfr-uM-38" value="" style="endArrow=none;html=1;rounded=0;fontFamily=Times New Roman;fontSize=18;entryX=0;entryY=1;entryDx=0;entryDy=0;exitX=1;exitY=0;exitDx=0;exitDy=0;" edge="1" parent="1" source="AafMlstYyDwelmlfr-uM-22" target="AafMlstYyDwelmlfr-uM-33">
          <mxGeometry width="50" height="50" relative="1" as="geometry">
            <mxPoint x="1160" y="1020" as="sourcePoint" />
            <mxPoint x="1210" y="970" as="targetPoint" />
          </mxGeometry>
        </mxCell>
        <mxCell id="AafMlstYyDwelmlfr-uM-39" value="" style="endArrow=none;html=1;rounded=0;fontFamily=Times New Roman;fontSize=18;entryX=0;entryY=0;entryDx=0;entryDy=0;exitX=1;exitY=1;exitDx=0;exitDy=0;" edge="1" parent="1" source="AafMlstYyDwelmlfr-uM-22" target="AafMlstYyDwelmlfr-uM-34">
          <mxGeometry width="50" height="50" relative="1" as="geometry">
            <mxPoint x="1160" y="1020" as="sourcePoint" />
            <mxPoint x="1210" y="970" as="targetPoint" />
          </mxGeometry>
        </mxCell>
        <mxCell id="AafMlstYyDwelmlfr-uM-40" value="&lt;b&gt;CNganh&lt;/b&gt;" style="ellipse;whiteSpace=wrap;html=1;fontFamily=Times New Roman;fontSize=18;" vertex="1" parent="1">
          <mxGeometry x="380" y="1120" width="120" height="80" as="geometry" />
        </mxCell>
        <mxCell id="AafMlstYyDwelmlfr-uM-41" value="&lt;b&gt;TTDHV&lt;/b&gt;" style="ellipse;whiteSpace=wrap;html=1;fontFamily=Times New Roman;fontSize=18;" vertex="1" parent="1">
          <mxGeometry x="40" y="1120" width="120" height="80" as="geometry" />
        </mxCell>
        <mxCell id="AafMlstYyDwelmlfr-uM-42" value="&lt;b&gt;MaTDHV&lt;/b&gt;" style="ellipse;whiteSpace=wrap;html=1;fontFamily=Times New Roman;fontSize=18;" vertex="1" parent="1">
          <mxGeometry x="40" y="880" width="120" height="80" as="geometry" />
        </mxCell>
        <mxCell id="AafMlstYyDwelmlfr-uM-43" value="" style="endArrow=none;html=1;rounded=0;fontFamily=Times New Roman;fontSize=18;entryX=0.5;entryY=1;entryDx=0;entryDy=0;exitX=0;exitY=0;exitDx=0;exitDy=0;" edge="1" parent="1" source="AafMlstYyDwelmlfr-uM-20" target="AafMlstYyDwelmlfr-uM-42">
          <mxGeometry width="50" height="50" relative="1" as="geometry">
            <mxPoint x="170" y="1160" as="sourcePoint" />
            <mxPoint x="220" y="1110" as="targetPoint" />
          </mxGeometry>
        </mxCell>
        <mxCell id="AafMlstYyDwelmlfr-uM-44" value="" style="endArrow=none;html=1;rounded=0;fontFamily=Times New Roman;fontSize=18;entryX=0;entryY=1;entryDx=0;entryDy=0;exitX=0.5;exitY=0;exitDx=0;exitDy=0;" edge="1" parent="1" source="AafMlstYyDwelmlfr-uM-41" target="AafMlstYyDwelmlfr-uM-20">
          <mxGeometry width="50" height="50" relative="1" as="geometry">
            <mxPoint x="170" y="1160" as="sourcePoint" />
            <mxPoint x="220" y="1110" as="targetPoint" />
          </mxGeometry>
        </mxCell>
        <mxCell id="AafMlstYyDwelmlfr-uM-45" value="" style="endArrow=none;html=1;rounded=0;fontFamily=Times New Roman;fontSize=18;entryX=1;entryY=1;entryDx=0;entryDy=0;exitX=0.5;exitY=0;exitDx=0;exitDy=0;" edge="1" parent="1" source="AafMlstYyDwelmlfr-uM-40" target="AafMlstYyDwelmlfr-uM-20">
          <mxGeometry width="50" height="50" relative="1" as="geometry">
            <mxPoint x="170" y="1160" as="sourcePoint" />
            <mxPoint x="220" y="1110" as="targetPoint" />
          </mxGeometry>
        </mxCell>
        <mxCell id="AafMlstYyDwelmlfr-uM-46" value="&lt;b&gt;SoDienThoai&lt;/b&gt;" style="ellipse;whiteSpace=wrap;html=1;fontFamily=Times New Roman;fontSize=18;" vertex="1" parent="1">
          <mxGeometry x="340" y="600" width="120" height="80" as="geometry" />
        </mxCell>
        <mxCell id="AafMlstYyDwelmlfr-uM-47" value="&lt;b&gt;NgaySinh&lt;/b&gt;" style="ellipse;whiteSpace=wrap;html=1;fontFamily=Times New Roman;fontSize=18;" vertex="1" parent="1">
          <mxGeometry x="459" y="480" width="120" height="80" as="geometry" />
        </mxCell>
        <mxCell id="AafMlstYyDwelmlfr-uM-48" value="&lt;b&gt;GioiTinh&lt;/b&gt;" style="ellipse;whiteSpace=wrap;html=1;fontFamily=Times New Roman;fontSize=18;" vertex="1" parent="1">
          <mxGeometry x="720" y="480" width="120" height="80" as="geometry" />
        </mxCell>
        <mxCell id="AafMlstYyDwelmlfr-uM-49" value="&lt;b&gt;MaNV&lt;/b&gt;" style="ellipse;whiteSpace=wrap;html=1;fontFamily=Times New Roman;fontSize=18;" vertex="1" parent="1">
          <mxGeometry x="880" y="600" width="120" height="80" as="geometry" />
        </mxCell>
        <mxCell id="AafMlstYyDwelmlfr-uM-50" value="&lt;b&gt;QueQuan&lt;/b&gt;" style="ellipse;whiteSpace=wrap;html=1;fontFamily=Times New Roman;fontSize=18;" vertex="1" parent="1">
          <mxGeometry x="880" y="760" width="120" height="80" as="geometry" />
        </mxCell>
        <mxCell id="AafMlstYyDwelmlfr-uM-51" value="&lt;b&gt;MaNV&lt;/b&gt;" style="ellipse;whiteSpace=wrap;html=1;fontFamily=Times New Roman;fontSize=18;" vertex="1" parent="1">
          <mxGeometry x="340" y="760" width="120" height="80" as="geometry" />
        </mxCell>
        <mxCell id="AafMlstYyDwelmlfr-uM-52" value="&lt;b&gt;HoTen&lt;/b&gt;" style="ellipse;whiteSpace=wrap;html=1;fontFamily=Times New Roman;fontSize=18;" vertex="1" parent="1">
          <mxGeometry x="459" y="880" width="120" height="80" as="geometry" />
        </mxCell>
        <mxCell id="AafMlstYyDwelmlfr-uM-53" value="&lt;b&gt;DanToc&lt;/b&gt;" style="ellipse;whiteSpace=wrap;html=1;fontFamily=Times New Roman;fontSize=18;" vertex="1" parent="1">
          <mxGeometry x="720" y="880" width="120" height="80" as="geometry" />
        </mxCell>
        <mxCell id="AafMlstYyDwelmlfr-uM-54" value="" style="endArrow=none;html=1;rounded=0;fontFamily=Times New Roman;fontSize=18;entryX=0;entryY=0.5;entryDx=0;entryDy=0;exitX=1;exitY=0.25;exitDx=0;exitDy=0;" edge="1" parent="1" source="AafMlstYyDwelmlfr-uM-10" target="AafMlstYyDwelmlfr-uM-49">
          <mxGeometry width="50" height="50" relative="1" as="geometry">
            <mxPoint x="720" y="750" as="sourcePoint" />
            <mxPoint x="770" y="700" as="targetPoint" />
          </mxGeometry>
        </mxCell>
        <mxCell id="AafMlstYyDwelmlfr-uM-55" value="" style="endArrow=none;html=1;rounded=0;fontFamily=Times New Roman;fontSize=18;entryX=0;entryY=0.5;entryDx=0;entryDy=0;exitX=1;exitY=0.75;exitDx=0;exitDy=0;" edge="1" parent="1" source="AafMlstYyDwelmlfr-uM-10" target="AafMlstYyDwelmlfr-uM-50">
          <mxGeometry width="50" height="50" relative="1" as="geometry">
            <mxPoint x="720" y="750" as="sourcePoint" />
            <mxPoint x="770" y="700" as="targetPoint" />
          </mxGeometry>
        </mxCell>
        <mxCell id="AafMlstYyDwelmlfr-uM-56" value="" style="endArrow=none;html=1;rounded=0;fontFamily=Times New Roman;fontSize=18;exitX=0.5;exitY=0;exitDx=0;exitDy=0;entryX=0.808;entryY=1.011;entryDx=0;entryDy=0;entryPerimeter=0;" edge="1" parent="1" source="AafMlstYyDwelmlfr-uM-53" target="AafMlstYyDwelmlfr-uM-10">
          <mxGeometry width="50" height="50" relative="1" as="geometry">
            <mxPoint x="720" y="750" as="sourcePoint" />
            <mxPoint x="770" y="700" as="targetPoint" />
          </mxGeometry>
        </mxCell>
        <mxCell id="AafMlstYyDwelmlfr-uM-57" value="" style="endArrow=none;html=1;rounded=0;fontFamily=Times New Roman;fontSize=18;entryX=0.5;entryY=1;entryDx=0;entryDy=0;exitX=0.75;exitY=0;exitDx=0;exitDy=0;" edge="1" parent="1" source="AafMlstYyDwelmlfr-uM-10" target="AafMlstYyDwelmlfr-uM-48">
          <mxGeometry width="50" height="50" relative="1" as="geometry">
            <mxPoint x="720" y="750" as="sourcePoint" />
            <mxPoint x="770" y="700" as="targetPoint" />
          </mxGeometry>
        </mxCell>
        <mxCell id="AafMlstYyDwelmlfr-uM-58" value="" style="endArrow=none;html=1;rounded=0;fontFamily=Times New Roman;fontSize=18;entryX=0.5;entryY=1;entryDx=0;entryDy=0;exitX=0.25;exitY=0;exitDx=0;exitDy=0;" edge="1" parent="1" source="AafMlstYyDwelmlfr-uM-10" target="AafMlstYyDwelmlfr-uM-47">
          <mxGeometry width="50" height="50" relative="1" as="geometry">
            <mxPoint x="720" y="750" as="sourcePoint" />
            <mxPoint x="770" y="700" as="targetPoint" />
          </mxGeometry>
        </mxCell>
        <mxCell id="AafMlstYyDwelmlfr-uM-59" value="" style="endArrow=none;html=1;rounded=0;fontFamily=Times New Roman;fontSize=18;exitX=0.5;exitY=0;exitDx=0;exitDy=0;entryX=0.25;entryY=1;entryDx=0;entryDy=0;" edge="1" parent="1" source="AafMlstYyDwelmlfr-uM-52" target="AafMlstYyDwelmlfr-uM-10">
          <mxGeometry width="50" height="50" relative="1" as="geometry">
            <mxPoint x="720" y="750" as="sourcePoint" />
            <mxPoint x="770" y="700" as="targetPoint" />
          </mxGeometry>
        </mxCell>
        <mxCell id="AafMlstYyDwelmlfr-uM-60" value="" style="endArrow=none;html=1;rounded=0;fontFamily=Times New Roman;fontSize=18;exitX=1;exitY=0.5;exitDx=0;exitDy=0;entryX=0;entryY=0.75;entryDx=0;entryDy=0;" edge="1" parent="1" source="AafMlstYyDwelmlfr-uM-51" target="AafMlstYyDwelmlfr-uM-10">
          <mxGeometry width="50" height="50" relative="1" as="geometry">
            <mxPoint x="720" y="750" as="sourcePoint" />
            <mxPoint x="770" y="700" as="targetPoint" />
          </mxGeometry>
        </mxCell>
        <mxCell id="AafMlstYyDwelmlfr-uM-61" value="" style="endArrow=none;html=1;rounded=0;fontFamily=Times New Roman;fontSize=18;exitX=1;exitY=0.5;exitDx=0;exitDy=0;entryX=0;entryY=0.25;entryDx=0;entryDy=0;" edge="1" parent="1" source="AafMlstYyDwelmlfr-uM-46" target="AafMlstYyDwelmlfr-uM-10">
          <mxGeometry width="50" height="50" relative="1" as="geometry">
            <mxPoint x="720" y="750" as="sourcePoint" />
            <mxPoint x="770" y="700" as="targetPoint" />
          </mxGeometry>
        </mxCell>
      </root>
    </mxGraphModel>
  </diagram>
  <diagram id="cYTX95Abf7_iCvBx2Xst" name="Trang-2">
    <mxGraphModel dx="794" dy="428" grid="1" gridSize="10" guides="1" tooltips="1" connect="1" arrows="1" fold="1" page="1" pageScale="1" pageWidth="1654" pageHeight="2336" math="0" shadow="0">
      <root>
        <mxCell id="0" />
        <mxCell id="1" parent="0" />
        <mxCell id="y7B3cZmix66bUoSn38vz-1" value="&lt;b&gt;MaPB&lt;/b&gt;" style="rounded=0;whiteSpace=wrap;html=1;fontFamily=Times New Roman;fontSize=18;" vertex="1" parent="1">
          <mxGeometry x="120" y="80" width="120" height="60" as="geometry" />
        </mxCell>
        <mxCell id="y7B3cZmix66bUoSn38vz-2" value="&lt;b&gt;TenPB&lt;/b&gt;" style="rounded=0;whiteSpace=wrap;html=1;fontFamily=Times New Roman;fontSize=18;" vertex="1" parent="1">
          <mxGeometry x="240" y="80" width="120" height="60" as="geometry" />
        </mxCell>
        <mxCell id="y7B3cZmix66bUoSn38vz-3" value="&lt;b&gt;SDTPB&lt;/b&gt;" style="rounded=0;whiteSpace=wrap;html=1;fontFamily=Times New Roman;fontSize=18;" vertex="1" parent="1">
          <mxGeometry x="360" y="80" width="120" height="60" as="geometry" />
        </mxCell>
        <mxCell id="y7B3cZmix66bUoSn38vz-4" value="&lt;b&gt;DiaChi&lt;/b&gt;" style="rounded=0;whiteSpace=wrap;html=1;fontFamily=Times New Roman;fontSize=18;" vertex="1" parent="1">
          <mxGeometry x="480" y="80" width="120" height="60" as="geometry" />
        </mxCell>
        <mxCell id="y7B3cZmix66bUoSn38vz-5" value="&lt;b&gt;BacLuong&lt;/b&gt;" style="rounded=0;whiteSpace=wrap;html=1;fontFamily=Times New Roman;fontSize=18;" vertex="1" parent="1">
          <mxGeometry x="918" y="200" width="120" height="60" as="geometry" />
        </mxCell>
        <mxCell id="y7B3cZmix66bUoSn38vz-6" value="&lt;b&gt;LuongCB&lt;/b&gt;" style="rounded=0;whiteSpace=wrap;html=1;fontFamily=Times New Roman;fontSize=18;" vertex="1" parent="1">
          <mxGeometry x="1038" y="200" width="120" height="60" as="geometry" />
        </mxCell>
        <mxCell id="y7B3cZmix66bUoSn38vz-7" value="&lt;b&gt;HSLuong&lt;/b&gt;" style="rounded=0;whiteSpace=wrap;html=1;fontFamily=Times New Roman;fontSize=18;" vertex="1" parent="1">
          <mxGeometry x="1158" y="200" width="120" height="60" as="geometry" />
        </mxCell>
        <mxCell id="y7B3cZmix66bUoSn38vz-8" value="&lt;b&gt;HSPhuCap&lt;/b&gt;" style="rounded=0;whiteSpace=wrap;html=1;fontFamily=Times New Roman;fontSize=18;" vertex="1" parent="1">
          <mxGeometry x="1278" y="200" width="120" height="60" as="geometry" />
        </mxCell>
        <mxCell id="rUf8V_GpNKSkMKqOGDMk-1" value="&lt;b&gt;MaNV&lt;/b&gt;" style="rounded=0;whiteSpace=wrap;html=1;fontFamily=Times New Roman;fontSize=18;" vertex="1" parent="1">
          <mxGeometry x="120" y="520" width="120" height="60" as="geometry" />
        </mxCell>
        <mxCell id="rUf8V_GpNKSkMKqOGDMk-2" value="&lt;b&gt;HoTen&lt;/b&gt;" style="rounded=0;whiteSpace=wrap;html=1;fontFamily=Times New Roman;fontSize=18;" vertex="1" parent="1">
          <mxGeometry x="240" y="520" width="120" height="60" as="geometry" />
        </mxCell>
        <mxCell id="rUf8V_GpNKSkMKqOGDMk-3" value="&lt;b&gt;DanToc&lt;/b&gt;" style="rounded=0;whiteSpace=wrap;html=1;fontFamily=Times New Roman;fontSize=18;" vertex="1" parent="1">
          <mxGeometry x="360" y="520" width="120" height="60" as="geometry" />
        </mxCell>
        <mxCell id="rUf8V_GpNKSkMKqOGDMk-4" value="&lt;b&gt;GioiTinh&lt;/b&gt;" style="rounded=0;whiteSpace=wrap;html=1;fontFamily=Times New Roman;fontSize=18;" vertex="1" parent="1">
          <mxGeometry x="480" y="520" width="120" height="60" as="geometry" />
        </mxCell>
        <mxCell id="rUf8V_GpNKSkMKqOGDMk-5" value="&lt;b&gt;QueQuan&lt;/b&gt;" style="rounded=0;whiteSpace=wrap;html=1;fontFamily=Times New Roman;fontSize=18;" vertex="1" parent="1">
          <mxGeometry x="600" y="520" width="120" height="60" as="geometry" />
        </mxCell>
        <mxCell id="rUf8V_GpNKSkMKqOGDMk-6" value="&lt;b&gt;NgaySinh&lt;/b&gt;" style="rounded=0;whiteSpace=wrap;html=1;fontFamily=Times New Roman;fontSize=18;" vertex="1" parent="1">
          <mxGeometry x="720" y="520" width="120" height="60" as="geometry" />
        </mxCell>
        <mxCell id="rUf8V_GpNKSkMKqOGDMk-7" value="&lt;b&gt;SoDienThoai&lt;/b&gt;" style="rounded=0;whiteSpace=wrap;html=1;fontFamily=Times New Roman;fontSize=18;" vertex="1" parent="1">
          <mxGeometry x="840" y="520" width="120" height="60" as="geometry" />
        </mxCell>
        <mxCell id="rUf8V_GpNKSkMKqOGDMk-8" value="&lt;b&gt;MaCV&lt;/b&gt;" style="rounded=0;whiteSpace=wrap;html=1;fontFamily=Times New Roman;fontSize=18;" vertex="1" parent="1">
          <mxGeometry x="960" y="520" width="120" height="60" as="geometry" />
        </mxCell>
        <mxCell id="rUf8V_GpNKSkMKqOGDMk-9" value="&lt;b&gt;MaPB&lt;/b&gt;" style="rounded=0;whiteSpace=wrap;html=1;fontFamily=Times New Roman;fontSize=18;" vertex="1" parent="1">
          <mxGeometry x="1080" y="520" width="120" height="60" as="geometry" />
        </mxCell>
        <mxCell id="rUf8V_GpNKSkMKqOGDMk-10" value="&lt;b&gt;MaTDHV&lt;/b&gt;" style="rounded=0;whiteSpace=wrap;html=1;fontFamily=Times New Roman;fontSize=18;" vertex="1" parent="1">
          <mxGeometry x="1200" y="520" width="120" height="60" as="geometry" />
        </mxCell>
        <mxCell id="rUf8V_GpNKSkMKqOGDMk-11" value="&lt;b&gt;BacLuong&lt;/b&gt;" style="rounded=0;whiteSpace=wrap;html=1;fontFamily=Times New Roman;fontSize=18;" vertex="1" parent="1">
          <mxGeometry x="1320" y="520" width="120" height="60" as="geometry" />
        </mxCell>
        <mxCell id="rUf8V_GpNKSkMKqOGDMk-12" value="" style="endArrow=classic;html=1;rounded=0;fontFamily=Times New Roman;fontSize=18;exitX=0.5;exitY=1;exitDx=0;exitDy=0;entryX=0.5;entryY=0;entryDx=0;entryDy=0;" edge="1" parent="1" source="y7B3cZmix66bUoSn38vz-5" target="rUf8V_GpNKSkMKqOGDMk-11">
          <mxGeometry width="50" height="50" relative="1" as="geometry">
            <mxPoint x="1120" y="470" as="sourcePoint" />
            <mxPoint x="1170" y="420" as="targetPoint" />
          </mxGeometry>
        </mxCell>
        <mxCell id="rUf8V_GpNKSkMKqOGDMk-13" value="" style="endArrow=classic;html=1;rounded=0;fontFamily=Times New Roman;fontSize=18;exitX=0.5;exitY=1;exitDx=0;exitDy=0;entryX=0.5;entryY=0;entryDx=0;entryDy=0;" edge="1" parent="1" source="y7B3cZmix66bUoSn38vz-1" target="rUf8V_GpNKSkMKqOGDMk-9">
          <mxGeometry width="50" height="50" relative="1" as="geometry">
            <mxPoint x="200" y="340" as="sourcePoint" />
            <mxPoint x="800" y="410" as="targetPoint" />
          </mxGeometry>
        </mxCell>
        <mxCell id="rUf8V_GpNKSkMKqOGDMk-15" value="&lt;b&gt;CNganh&lt;/b&gt;" style="rounded=0;whiteSpace=wrap;html=1;fontFamily=Times New Roman;fontSize=18;" vertex="1" parent="1">
          <mxGeometry x="1280" y="720" width="120" height="60" as="geometry" />
        </mxCell>
        <mxCell id="rUf8V_GpNKSkMKqOGDMk-16" value="&lt;b&gt;TenTDHV&lt;/b&gt;" style="rounded=0;whiteSpace=wrap;html=1;fontFamily=Times New Roman;fontSize=18;" vertex="1" parent="1">
          <mxGeometry x="1160" y="720" width="120" height="60" as="geometry" />
        </mxCell>
        <mxCell id="rUf8V_GpNKSkMKqOGDMk-17" value="&lt;b&gt;MaTDHV&lt;/b&gt;" style="rounded=0;whiteSpace=wrap;html=1;fontFamily=Times New Roman;fontSize=18;" vertex="1" parent="1">
          <mxGeometry x="1040" y="720" width="120" height="60" as="geometry" />
        </mxCell>
        <mxCell id="rUf8V_GpNKSkMKqOGDMk-18" value="" style="endArrow=classic;html=1;rounded=0;fontFamily=Times New Roman;fontSize=18;entryX=0.5;entryY=1;entryDx=0;entryDy=0;exitX=0.5;exitY=0;exitDx=0;exitDy=0;" edge="1" parent="1" source="rUf8V_GpNKSkMKqOGDMk-16" target="rUf8V_GpNKSkMKqOGDMk-10">
          <mxGeometry width="50" height="50" relative="1" as="geometry">
            <mxPoint x="1120" y="750" as="sourcePoint" />
            <mxPoint x="1170" y="700" as="targetPoint" />
          </mxGeometry>
        </mxCell>
        <mxCell id="rUf8V_GpNKSkMKqOGDMk-19" value="&lt;b&gt;TenCV&lt;/b&gt;" style="rounded=0;whiteSpace=wrap;html=1;fontFamily=Times New Roman;fontSize=18;" vertex="1" parent="1">
          <mxGeometry x="800" y="880" width="120" height="60" as="geometry" />
        </mxCell>
        <mxCell id="rUf8V_GpNKSkMKqOGDMk-20" value="&lt;b&gt;MaCV&lt;/b&gt;" style="rounded=0;whiteSpace=wrap;html=1;fontFamily=Times New Roman;fontSize=18;" vertex="1" parent="1">
          <mxGeometry x="680" y="880" width="120" height="60" as="geometry" />
        </mxCell>
        <mxCell id="rUf8V_GpNKSkMKqOGDMk-21" value="" style="endArrow=classic;html=1;rounded=0;fontFamily=Times New Roman;fontSize=18;exitX=0.5;exitY=0;exitDx=0;exitDy=0;entryX=0.5;entryY=1;entryDx=0;entryDy=0;" edge="1" parent="1" source="rUf8V_GpNKSkMKqOGDMk-20" target="rUf8V_GpNKSkMKqOGDMk-8">
          <mxGeometry width="50" height="50" relative="1" as="geometry">
            <mxPoint x="840" y="880" as="sourcePoint" />
            <mxPoint x="890" y="830" as="targetPoint" />
          </mxGeometry>
        </mxCell>
        <mxCell id="rUf8V_GpNKSkMKqOGDMk-22" value="&lt;b&gt;MaHD&lt;/b&gt;" style="rounded=0;whiteSpace=wrap;html=1;fontFamily=Times New Roman;fontSize=18;" vertex="1" parent="1">
          <mxGeometry x="120" y="1120" width="120" height="60" as="geometry" />
        </mxCell>
        <mxCell id="rUf8V_GpNKSkMKqOGDMk-23" value="&lt;b&gt;MaNV&lt;/b&gt;" style="rounded=0;whiteSpace=wrap;html=1;fontFamily=Times New Roman;fontSize=18;" vertex="1" parent="1">
          <mxGeometry x="240" y="1120" width="120" height="60" as="geometry" />
        </mxCell>
        <mxCell id="rUf8V_GpNKSkMKqOGDMk-24" value="&lt;b&gt;LoaiHD&lt;/b&gt;" style="rounded=0;whiteSpace=wrap;html=1;fontFamily=Times New Roman;fontSize=18;" vertex="1" parent="1">
          <mxGeometry x="360" y="1120" width="120" height="60" as="geometry" />
        </mxCell>
        <mxCell id="rUf8V_GpNKSkMKqOGDMk-25" value="&lt;b&gt;DenNgay&lt;/b&gt;" style="rounded=0;whiteSpace=wrap;html=1;fontFamily=Times New Roman;fontSize=18;" vertex="1" parent="1">
          <mxGeometry x="600" y="1120" width="120" height="60" as="geometry" />
        </mxCell>
        <mxCell id="rUf8V_GpNKSkMKqOGDMk-26" value="&lt;b&gt;TuNgay&lt;/b&gt;" style="rounded=0;whiteSpace=wrap;html=1;fontFamily=Times New Roman;fontSize=18;" vertex="1" parent="1">
          <mxGeometry x="480" y="1120" width="120" height="60" as="geometry" />
        </mxCell>
        <mxCell id="rUf8V_GpNKSkMKqOGDMk-27" value="" style="endArrow=classic;html=1;rounded=0;fontFamily=Times New Roman;fontSize=18;exitX=0.5;exitY=0;exitDx=0;exitDy=0;entryX=0.5;entryY=1;entryDx=0;entryDy=0;" edge="1" parent="1" source="rUf8V_GpNKSkMKqOGDMk-23" target="rUf8V_GpNKSkMKqOGDMk-1">
          <mxGeometry width="50" height="50" relative="1" as="geometry">
            <mxPoint x="450" y="1080" as="sourcePoint" />
            <mxPoint x="220" y="930" as="targetPoint" />
          </mxGeometry>
        </mxCell>
      </root>
    </mxGraphModel>
  </diagram>
</mxfile>
